<?xml version="1.0" encoding="UTF-8" standalone="no"?><!DOCTYPE svg PUBLIC "-//W3C//DTD SVG 1.1//EN" "http://www.w3.org/Graphics/SVG/1.1/DTD/svg11.dtd"><svg xmlns="http://www.w3.org/2000/svg" xmlns:xlink="http://www.w3.org/1999/xlink" version="1.1" width="1365" height="1365" viewBox="0 0 1024 1024">
<desc>Created with SVGMaker Editor 3.0.0</desc>
<defs>
</defs>
<path transform="translate(0,0)" style="fill: rgb(80,176,92)" stroke-linecap="round" d="M132.7585 23.7092C131.944 24.3201 131.3331 199.4419 131.3331 412.4389L131.3331 799.9468 182.8515 834.3603C315.8219 922.9393 407.2517 984.4356 408.2699 985.4537 408.8808 986.0646 416.8223 991.9699 426.1893 998.4861 437.7962 1006.6313 443.2942 1009.2784 443.9051 1007.4458 444.516 1006.0204 445.1269 921.9212 445.5342 820.5134L445.9414 636.2283 569.3412 635.6174C664.8437 635.2101 693.3519 634.5992 694.9809 632.5629 696.2027 631.1375 697.6281 594.2805 698.4426 535.0242 699.868 440.5399 699.868 440.1326 695.7954 437.8927 690.5011 435.0418 616.3797 434.8382 611.8999 437.689 609.4563 439.1144 609.0491 448.2778 608.8454 493.0764L608.8454 546.6311 485.8529 547.242C390.3504 547.6492 362.2495 548.2601 361.0277 550.2964 360.2132 551.5182 359.3987 618.5125 359.3987 698.7427 359.3987 824.7897 358.9914 844.949 356.5479 844.949 354.9188 844.949 335.3703 832.7312 312.971 817.8662 290.7754 803.2049 271.2269 789.9689 269.3942 788.9508 250.4566 777.1402 219.0976 754.5373 218.0795 752.0938 216.6541 748.4284 218.894 115.75 220.1158 113.5101 220.7267 112.4919 338.4248 111.881 481.7803 111.881L742.2231 111.881 742.2231 116.1573C742.2231 118.3972 739.5759 123.6916 736.5214 127.7642 725.5254 142.0183 702.108 173.9882 692.3337 188.2423 686.8357 195.9802 681.3377 203.5145 680.3196 204.9399 677.0615 208.4017 672.5816 214.5106 657.3094 235.0772 649.9787 245.0551 643.4625 253.8111 643.0553 254.422 642.4444 255.0329 578.7082 255.8474 501.3288 256.4583L360.4168 257.4765 359.8059 344.8338C359.3987 408.3663 360.0096 432.8019 361.6386 435.0418 363.6749 437.2818 371.8201 437.689 403.9937 437.2818L443.9051 436.6709 444.516 392.0759C444.9233 361.3278 445.7378 346.4628 447.3668 344.4265 449.4031 341.9829 465.8972 341.7793 562.4178 343.0011 624.1177 343.8156 676.6542 343.8156 679.0978 343.0011 683.9849 341.372 711.8822 307.1622 750.9792 254.422 836.3001 139.1675 874.5826 87.2418 876.4153 83.5765 879.6733 77.8748 879.2661 27.7818 876.2116 24.7274 874.379 22.8947 788.8544 22.2838 503.976 22.2838 300.5496 22.2838 133.3694 22.8947 132.7585 23.7092Z"/>
</svg>